<?xml version="1.0" encoding="UTF-8" standalone="no"?>
<!DOCTYPE svg PUBLIC "-//W3C//DTD SVG 1.1//EN"
 "http://www.w3.org/Graphics/SVG/1.1/DTD/svg11.dtd">
<!-- Generated by graphviz version 2.43.0 (0)
 -->
<!-- Title: G Pages: 1 -->
<svg width="219pt" height="305pt"
 viewBox="0.00 0.00 219.10 305.00" xmlns="http://www.w3.org/2000/svg" xmlns:xlink="http://www.w3.org/1999/xlink">
<g id="graph0" class="graph" transform="scale(1 1) rotate(0) translate(4 301)">
<title>G</title>
<polygon fill="white" stroke="transparent" points="-4,4 -4,-301 215.1,-301 215.1,4 -4,4"/>
<!-- SFR100 -->
<g id="node1" class="node">
<title>SFR100</title>
<ellipse fill="none" stroke="black" cx="48.1" cy="-105" rx="48.19" ry="18"/>
<text text-anchor="middle" x="48.1" y="-101.3" font-family="Times,serif" font-size="14.00">SFR100</text>
</g>
<!-- Repository -->
<g id="node4" class="node">
<title>Repository</title>
<ellipse fill="none" stroke="black" cx="112.1" cy="-18" rx="61.19" ry="18"/>
<text text-anchor="middle" x="112.1" y="-14.3" font-family="Times,serif" font-size="14.00">Repository</text>
</g>
<!-- SFR100&#45;&gt;Repository -->
<g id="edge3" class="edge">
<title>SFR100&#45;&gt;Repository</title>
<path fill="none" stroke="black" d="M44.35,-86.61C43.11,-76.41 43.27,-63.67 49.1,-54 53.04,-47.44 58.7,-42.02 65.03,-37.56"/>
<polygon fill="black" stroke="black" points="67.29,-40.29 73.98,-32.07 63.62,-34.32 67.29,-40.29"/>
<text text-anchor="middle" x="105.6" y="-57.8" font-family="Times,serif" font-size="14.00">Spent SFR Fuel</text>
</g>
<!-- Mine -->
<g id="node2" class="node">
<title>Mine</title>
<ellipse fill="none" stroke="black" cx="112.1" cy="-279" rx="34.39" ry="18"/>
<text text-anchor="middle" x="112.1" y="-275.3" font-family="Times,serif" font-size="14.00">Mine</text>
</g>
<!-- Enrichment -->
<g id="node3" class="node">
<title>Enrichment</title>
<ellipse fill="none" stroke="black" cx="112.1" cy="-192" rx="65.79" ry="18"/>
<text text-anchor="middle" x="112.1" y="-188.3" font-family="Times,serif" font-size="14.00">Enrichment</text>
</g>
<!-- Mine&#45;&gt;Enrichment -->
<g id="edge1" class="edge">
<title>Mine&#45;&gt;Enrichment</title>
<path fill="none" stroke="black" d="M112.1,-260.8C112.1,-249.16 112.1,-233.55 112.1,-220.24"/>
<polygon fill="black" stroke="black" points="115.6,-220.18 112.1,-210.18 108.6,-220.18 115.6,-220.18"/>
<text text-anchor="middle" x="159.1" y="-231.8" font-family="Times,serif" font-size="14.00">Uranium Ore</text>
</g>
<!-- Enrichment&#45;&gt;SFR100 -->
<g id="edge4" class="edge">
<title>Enrichment&#45;&gt;SFR100</title>
<path fill="none" stroke="black" d="M73.72,-177.2C64.45,-172 55.64,-165.07 50.1,-156 46.05,-149.37 44.58,-141.28 44.39,-133.55"/>
<polygon fill="black" stroke="black" points="47.89,-133.54 44.79,-123.41 40.9,-133.26 47.89,-133.54"/>
<text text-anchor="middle" x="106.1" y="-144.8" font-family="Times,serif" font-size="14.00">Fresh SFR Fuel</text>
</g>
<!-- Enrichment&#45;&gt;Repository -->
<g id="edge2" class="edge">
<title>Enrichment&#45;&gt;Repository</title>
<path fill="none" stroke="black" d="M143.13,-176.07C150.7,-170.84 157.84,-164.18 162.1,-156 183.03,-115.79 183.03,-94.21 162.1,-54 159.34,-48.7 155.37,-44.04 150.86,-39.99"/>
<polygon fill="black" stroke="black" points="152.9,-37.15 142.87,-33.75 148.6,-42.66 152.9,-37.15"/>
<text text-anchor="middle" x="194.1" y="-101.3" font-family="Times,serif" font-size="14.00">Tails</text>
</g>
</g>
</svg>
