<?xml version="1.0" encoding="UTF-8" standalone="no"?>
<!DOCTYPE svg PUBLIC "-//W3C//DTD SVG 1.1//EN"
 "http://www.w3.org/Graphics/SVG/1.1/DTD/svg11.dtd">
<!-- Generated by graphviz version 2.43.0 (0)
 -->
<!-- Title: G Pages: 1 -->
<svg width="320pt" height="305pt"
 viewBox="0.00 0.00 320.10 305.00" xmlns="http://www.w3.org/2000/svg" xmlns:xlink="http://www.w3.org/1999/xlink">
<g id="graph0" class="graph" transform="scale(1 1) rotate(0) translate(4 301)">
<title>G</title>
<polygon fill="white" stroke="transparent" points="-4,4 -4,-301 316.1,-301 316.1,4 -4,4"/>
<!-- SFR100 -->
<g id="node1" class="node">
<title>SFR100</title>
<ellipse fill="none" stroke="black" cx="48.1" cy="-105" rx="48.19" ry="18"/>
<text text-anchor="middle" x="48.1" y="-101.3" font-family="Times,serif" font-size="14.00">SFR100</text>
</g>
<!-- Repository -->
<g id="node4" class="node">
<title>Repository</title>
<ellipse fill="none" stroke="black" cx="125.1" cy="-18" rx="61.19" ry="18"/>
<text text-anchor="middle" x="125.1" y="-14.3" font-family="Times,serif" font-size="14.00">Repository</text>
</g>
<!-- SFR100&#45;&gt;Repository -->
<g id="edge3" class="edge">
<title>SFR100&#45;&gt;Repository</title>
<path fill="none" stroke="black" d="M43.73,-86.95C42.09,-76.63 41.89,-63.63 48.1,-54 53.41,-45.75 61.19,-39.43 69.79,-34.58"/>
<polygon fill="black" stroke="black" points="71.56,-37.61 78.98,-30.05 68.46,-31.33 71.56,-37.61"/>
<text text-anchor="middle" x="118.6" y="-57.8" font-family="Times,serif" font-size="14.00">spent_sfr 6.03e+04</text>
</g>
<!-- Mine -->
<g id="node2" class="node">
<title>Mine</title>
<ellipse fill="none" stroke="black" cx="125.1" cy="-279" rx="34.39" ry="18"/>
<text text-anchor="middle" x="125.1" y="-275.3" font-family="Times,serif" font-size="14.00">Mine</text>
</g>
<!-- Enrichment -->
<g id="node3" class="node">
<title>Enrichment</title>
<ellipse fill="none" stroke="black" cx="125.1" cy="-192" rx="65.79" ry="18"/>
<text text-anchor="middle" x="125.1" y="-188.3" font-family="Times,serif" font-size="14.00">Enrichment</text>
</g>
<!-- Mine&#45;&gt;Enrichment -->
<g id="edge1" class="edge">
<title>Mine&#45;&gt;Enrichment</title>
<path fill="none" stroke="black" d="M125.1,-260.8C125.1,-249.16 125.1,-233.55 125.1,-220.24"/>
<polygon fill="black" stroke="black" points="128.6,-220.18 125.1,-210.18 121.6,-220.18 128.6,-220.18"/>
<text text-anchor="middle" x="182.1" y="-231.8" font-family="Times,serif" font-size="14.00">u_ore 7.25e+06</text>
</g>
<!-- Enrichment&#45;&gt;SFR100 -->
<g id="edge4" class="edge">
<title>Enrichment&#45;&gt;SFR100</title>
<path fill="none" stroke="black" d="M79.98,-178.77C68.79,-173.57 58.02,-166.24 51.1,-156 46.63,-149.39 44.98,-141.09 44.7,-133.17"/>
<polygon fill="black" stroke="black" points="48.2,-133.24 45,-123.14 41.2,-133.02 48.2,-133.24"/>
<text text-anchor="middle" x="120.1" y="-144.8" font-family="Times,serif" font-size="14.00">fresh_sfr 9.05e+04</text>
</g>
<!-- Enrichment&#45;&gt;Repository -->
<g id="edge2" class="edge">
<title>Enrichment&#45;&gt;Repository</title>
<path fill="none" stroke="black" d="M164.93,-177.59C174.5,-172.39 183.54,-165.37 189.1,-156 212.22,-117.01 212.22,-92.99 189.1,-54 185.19,-47.41 179.55,-41.98 173.23,-37.53"/>
<polygon fill="black" stroke="black" points="174.62,-34.28 164.26,-32.05 170.97,-40.25 174.62,-34.28"/>
<text text-anchor="middle" x="259.1" y="-101.3" font-family="Times,serif" font-size="14.00">tails 2.16e+06</text>
</g>
</g>
</svg>
